# xmcd
#
# Track frame offsets: 
#        150
#        19567
#        39009
#        53814
#        72332
#        94442
#        111649
#        128810
#        147781
#        167776
#        192885
#
# Disc length: 2831 seconds
#
# Revision: 0
# Processed by: cddbd v1.5.2PL0 Copyright (c) Steve Scherf et al.
# Submitted via: ExactAudioCopy v0.99pb4
#
DISCID=970b0d0b
DTITLE=Circe Link - Live in Japan
DYEAR=2006
DGENRE=Country
TTITLE0=I Like Knowing You Miss Me
TTITLE1=Blue Bird Tattoo
TTITLE2=Paint the Town Red
TTITLE3=Cheshire Moon
TTITLE4=Every Blessing is a Curse in Disguise
TTITLE5=Let's Go Together
TTITLE6=High Roller
TTITLE7=Oh Lady
TTITLE8=Sorrow for Three
TTITLE9=Travelin' Daddy
TTITLE10=Love's Train
EXTD=
EXTT0=
EXTT1=
EXTT2=
EXTT3=
EXTT4=
EXTT5=
EXTT6=
EXTT7=
EXTT8=
EXTT9=
EXTT10=
PLAYORDER=
